<svg id="visual" viewBox="0 0 900 675" width="900" height="675" xmlns="http://www.w3.org/2000/svg" xmlns:xlink="http://www.w3.org/1999/xlink" version="1.1"><rect x="0" y="0" width="900" height="675" fill="#FFF"></rect><defs><linearGradient id="grad1_0" x1="25%" y1="0%" x2="100%" y2="100%"><stop offset="23.333333333333336%" stop-color="#0066ff" stop-opacity="1"></stop><stop offset="76.66666666666666%" stop-color="#0066ff" stop-opacity="1"></stop></linearGradient></defs><defs><linearGradient id="grad1_1" x1="25%" y1="0%" x2="100%" y2="100%"><stop offset="23.333333333333336%" stop-color="#0066ff" stop-opacity="1"></stop><stop offset="76.66666666666666%" stop-color="#7789ff" stop-opacity="1"></stop></linearGradient></defs><defs><linearGradient id="grad1_2" x1="25%" y1="0%" x2="100%" y2="100%"><stop offset="23.333333333333336%" stop-color="#acafff" stop-opacity="1"></stop><stop offset="76.66666666666666%" stop-color="#7789ff" stop-opacity="1"></stop></linearGradient></defs><defs><linearGradient id="grad1_3" x1="25%" y1="0%" x2="100%" y2="100%"><stop offset="23.333333333333336%" stop-color="#acafff" stop-opacity="1"></stop><stop offset="76.66666666666666%" stop-color="#d7d6ff" stop-opacity="1"></stop></linearGradient></defs><defs><linearGradient id="grad1_4" x1="25%" y1="0%" x2="100%" y2="100%"><stop offset="23.333333333333336%" stop-color="#ffffff" stop-opacity="1"></stop><stop offset="76.66666666666666%" stop-color="#d7d6ff" stop-opacity="1"></stop></linearGradient></defs><defs><linearGradient id="grad2_0" x1="0%" y1="0%" x2="75%" y2="100%"><stop offset="23.333333333333336%" stop-color="#0066ff" stop-opacity="1"></stop><stop offset="76.66666666666666%" stop-color="#0066ff" stop-opacity="1"></stop></linearGradient></defs><defs><linearGradient id="grad2_1" x1="0%" y1="0%" x2="75%" y2="100%"><stop offset="23.333333333333336%" stop-color="#7789ff" stop-opacity="1"></stop><stop offset="76.66666666666666%" stop-color="#0066ff" stop-opacity="1"></stop></linearGradient></defs><defs><linearGradient id="grad2_2" x1="0%" y1="0%" x2="75%" y2="100%"><stop offset="23.333333333333336%" stop-color="#7789ff" stop-opacity="1"></stop><stop offset="76.66666666666666%" stop-color="#acafff" stop-opacity="1"></stop></linearGradient></defs><defs><linearGradient id="grad2_3" x1="0%" y1="0%" x2="75%" y2="100%"><stop offset="23.333333333333336%" stop-color="#d7d6ff" stop-opacity="1"></stop><stop offset="76.66666666666666%" stop-color="#acafff" stop-opacity="1"></stop></linearGradient></defs><defs><linearGradient id="grad2_4" x1="0%" y1="0%" x2="75%" y2="100%"><stop offset="23.333333333333336%" stop-color="#d7d6ff" stop-opacity="1"></stop><stop offset="76.66666666666666%" stop-color="#ffffff" stop-opacity="1"></stop></linearGradient></defs><g transform="translate(900, 0)"><path d="M0 277C-38.9 279.2 -77.9 281.5 -112.5 271.6C-147.2 261.7 -177.5 239.7 -215.7 215.7C-253.8 191.6 -299.8 165.4 -311.8 129.2C-323.8 92.9 -301.9 46.4 -280 0L0 0Z" fill="#eceaff"></path><path d="M0 221.6C-31.1 223.4 -62.3 225.2 -90 217.3C-117.7 209.4 -142 191.8 -172.5 172.5C-203.1 153.3 -239.8 132.4 -249.4 103.3C-259.1 74.3 -241.5 37.1 -224 0L0 0Z" fill="#c2c2ff"></path><path d="M0 166.2C-23.4 167.5 -46.7 168.9 -67.5 163C-88.3 157 -106.5 143.8 -129.4 129.4C-152.3 115 -179.9 99.3 -187.1 77.5C-194.3 55.7 -181.1 27.9 -168 0L0 0Z" fill="#939cff"></path><path d="M0 110.8C-15.6 111.7 -31.1 112.6 -45 108.6C-58.9 104.7 -71 95.9 -86.3 86.3C-101.5 76.6 -119.9 66.2 -124.7 51.7C-129.5 37.1 -120.8 18.6 -112 0L0 0Z" fill="#5477ff"></path><path d="M0 55.4C-7.8 55.8 -15.6 56.3 -22.5 54.3C-29.4 52.3 -35.5 47.9 -43.1 43.1C-50.8 38.3 -60 33.1 -62.4 25.8C-64.8 18.6 -60.4 9.3 -56 0L0 0Z" fill="#0066ff"></path></g><g transform="translate(0, 675)"><path d="M0 -337.5C41.6 -318.7 83.1 -299.9 114.4 -276.2C145.7 -252.6 166.8 -224 198 -198C229.2 -172 270.6 -148.5 279.9 -116C289.3 -83.4 266.6 -41.7 244 0L0 0Z" fill="#eceaff"></path><path d="M0 -270C33.2 -255 66.5 -239.9 91.5 -221C116.6 -202.1 133.4 -179.2 158.4 -158.4C183.4 -137.6 216.5 -118.8 223.9 -92.8C231.4 -66.7 213.3 -33.4 195.2 0L0 0Z" fill="#c2c2ff"></path><path d="M0 -202.5C24.9 -191.2 49.9 -180 68.7 -165.7C87.4 -151.5 100.1 -134.4 118.8 -118.8C137.5 -103.2 162.3 -89.1 168 -69.6C173.6 -50 160 -25 146.4 0L0 0Z" fill="#939cff"></path><path d="M0 -135C16.6 -127.5 33.2 -120 45.8 -110.5C58.3 -101 66.7 -89.6 79.2 -79.2C91.7 -68.8 108.2 -59.4 112 -46.4C115.7 -33.4 106.7 -16.7 97.6 0L0 0Z" fill="#5477ff"></path><path d="M0 -67.5C8.3 -63.7 16.6 -60 22.9 -55.2C29.1 -50.5 33.4 -44.8 39.6 -39.6C45.8 -34.4 54.1 -29.7 56 -23.2C57.9 -16.7 53.3 -8.3 48.8 0L0 0Z" fill="#0066ff"></path></g></svg>