<svg id="visual" viewBox="0 0 900 600" width="900" height="600" xmlns="http://www.w3.org/2000/svg" xmlns:xlink="http://www.w3.org/1999/xlink" version="1.1"><rect x="0" y="0" width="900" height="600" fill="#FFF"></rect><defs><linearGradient id="grad1_0" x1="33.3%" y1="0%" x2="100%" y2="100%"><stop offset="20%" stop-color="#6a9deb" stop-opacity="1"></stop><stop offset="80%" stop-color="#6a9deb" stop-opacity="1"></stop></linearGradient></defs><defs><linearGradient id="grad1_1" x1="33.3%" y1="0%" x2="100%" y2="100%"><stop offset="20%" stop-color="#6a9deb" stop-opacity="1"></stop><stop offset="80%" stop-color="#8db0ef" stop-opacity="1"></stop></linearGradient></defs><defs><linearGradient id="grad1_2" x1="33.3%" y1="0%" x2="100%" y2="100%"><stop offset="20%" stop-color="#acc3f4" stop-opacity="1"></stop><stop offset="80%" stop-color="#8db0ef" stop-opacity="1"></stop></linearGradient></defs><defs><linearGradient id="grad1_3" x1="33.3%" y1="0%" x2="100%" y2="100%"><stop offset="20%" stop-color="#acc3f4" stop-opacity="1"></stop><stop offset="80%" stop-color="#c9d6f8" stop-opacity="1"></stop></linearGradient></defs><defs><linearGradient id="grad1_4" x1="33.3%" y1="0%" x2="100%" y2="100%"><stop offset="20%" stop-color="#e4ebfb" stop-opacity="1"></stop><stop offset="80%" stop-color="#c9d6f8" stop-opacity="1"></stop></linearGradient></defs><defs><linearGradient id="grad1_5" x1="33.3%" y1="0%" x2="100%" y2="100%"><stop offset="20%" stop-color="#e4ebfb" stop-opacity="1"></stop><stop offset="80%" stop-color="#ffffff" stop-opacity="1"></stop></linearGradient></defs><defs><linearGradient id="grad2_0" x1="0%" y1="0%" x2="66.7%" y2="100%"><stop offset="20%" stop-color="#6a9deb" stop-opacity="1"></stop><stop offset="80%" stop-color="#6a9deb" stop-opacity="1"></stop></linearGradient></defs><defs><linearGradient id="grad2_1" x1="0%" y1="0%" x2="66.7%" y2="100%"><stop offset="20%" stop-color="#8db0ef" stop-opacity="1"></stop><stop offset="80%" stop-color="#6a9deb" stop-opacity="1"></stop></linearGradient></defs><defs><linearGradient id="grad2_2" x1="0%" y1="0%" x2="66.7%" y2="100%"><stop offset="20%" stop-color="#8db0ef" stop-opacity="1"></stop><stop offset="80%" stop-color="#acc3f4" stop-opacity="1"></stop></linearGradient></defs><defs><linearGradient id="grad2_3" x1="0%" y1="0%" x2="66.7%" y2="100%"><stop offset="20%" stop-color="#c9d6f8" stop-opacity="1"></stop><stop offset="80%" stop-color="#acc3f4" stop-opacity="1"></stop></linearGradient></defs><defs><linearGradient id="grad2_4" x1="0%" y1="0%" x2="66.7%" y2="100%"><stop offset="20%" stop-color="#c9d6f8" stop-opacity="1"></stop><stop offset="80%" stop-color="#e4ebfb" stop-opacity="1"></stop></linearGradient></defs><defs><linearGradient id="grad2_5" x1="0%" y1="0%" x2="66.7%" y2="100%"><stop offset="20%" stop-color="#ffffff" stop-opacity="1"></stop><stop offset="80%" stop-color="#e4ebfb" stop-opacity="1"></stop></linearGradient></defs><g transform="translate(900, 0)"><path d="M0 450C-47.9 422.1 -95.7 394.3 -158.8 383.4C-221.9 372.5 -300.3 378.6 -344.2 344.2C-388.1 309.8 -397.5 234.8 -412.1 170.7C-426.6 106.6 -446.3 53.3 -466 0L0 0Z" fill="#f2f5fd"></path><path d="M0 375C-39.9 351.8 -79.8 328.6 -132.3 319.5C-184.9 310.4 -250.2 315.5 -286.8 286.8C-323.4 258.1 -331.2 195.7 -343.4 142.2C-355.5 88.8 -371.9 44.4 -388.3 0L0 0Z" fill="#d6e0fa"></path><path d="M0 300C-31.9 281.4 -63.8 262.9 -105.9 255.6C-147.9 248.4 -200.2 252.4 -229.5 229.5C-258.7 206.5 -265 156.5 -274.7 113.8C-284.4 71 -297.5 35.5 -310.7 0L0 0Z" fill="#bacdf6"></path><path d="M0 225C-23.9 211.1 -47.9 197.1 -79.4 191.7C-111 186.3 -150.1 189.3 -172.1 172.1C-194 154.9 -198.7 117.4 -206 85.3C-213.3 53.3 -223.2 26.6 -233 0L0 0Z" fill="#9db9f2"></path><path d="M0 150C-16 140.7 -31.9 131.4 -52.9 127.8C-74 124.2 -100.1 126.2 -114.7 114.7C-129.4 103.3 -132.5 78.3 -137.4 56.9C-142.2 35.5 -148.8 17.8 -155.3 0L0 0Z" fill="#7ca6ed"></path><path d="M0 75C-8 70.4 -16 65.7 -26.5 63.9C-37 62.1 -50 63.1 -57.4 57.4C-64.7 51.6 -66.2 39.1 -68.7 28.4C-71.1 17.8 -74.4 8.9 -77.7 0L0 0Z" fill="#6a9deb"></path></g><g transform="translate(0, 600)"><path d="M0 -486.7C66 -481.7 132 -476.7 184.8 -446.2C237.6 -415.7 277.3 -359.8 308.3 -308.3C339.3 -256.8 361.8 -209.8 384.3 -159.2C406.9 -108.6 429.4 -54.3 452 0L0 0Z" fill="#f2f5fd"></path><path d="M0 -405.6C55 -401.4 110 -397.3 154 -371.9C198 -346.5 231 -299.8 256.9 -256.9C282.8 -214 301.5 -174.9 320.3 -132.7C339 -90.5 357.9 -45.2 376.7 0L0 0Z" fill="#d6e0fa"></path><path d="M0 -324.5C44 -321.2 88 -317.8 123.2 -297.5C158.4 -277.2 184.8 -239.9 205.5 -205.5C226.2 -171.2 241.2 -139.9 256.2 -106.1C271.2 -72.4 286.3 -36.2 301.3 0L0 0Z" fill="#bacdf6"></path><path d="M0 -243.4C33 -240.9 66 -238.4 92.4 -223.1C118.8 -207.9 138.6 -179.9 154.1 -154.1C169.7 -128.4 180.9 -104.9 192.2 -79.6C203.4 -54.3 214.7 -27.1 226 0L0 0Z" fill="#9db9f2"></path><path d="M0 -162.2C22 -160.6 44 -158.9 61.6 -148.7C79.2 -138.6 92.4 -119.9 102.8 -102.8C113.1 -85.6 120.6 -69.9 128.1 -53.1C135.6 -36.2 143.1 -18.1 150.7 0L0 0Z" fill="#7ca6ed"></path><path d="M0 -81.1C11 -80.3 22 -79.5 30.8 -74.4C39.6 -69.3 46.2 -60 51.4 -51.4C56.6 -42.8 60.3 -35 64.1 -26.5C67.8 -18.1 71.6 -9 75.3 0L0 0Z" fill="#6a9deb"></path></g></svg>