<svg id="visual" viewBox="0 0 900 600" width="900" height="600" xmlns="http://www.w3.org/2000/svg" xmlns:xlink="http://www.w3.org/1999/xlink" version="1.1"><rect x="0" y="0" width="900" height="600" fill="#FFF"></rect><defs><linearGradient id="grad1_0" x1="33.3%" y1="0%" x2="100%" y2="100%"><stop offset="20%" stop-color="#ffffff" stop-opacity="1"></stop><stop offset="80%" stop-color="#ffffff" stop-opacity="1"></stop></linearGradient></defs><defs><linearGradient id="grad2_0" x1="0%" y1="0%" x2="66.7%" y2="100%"><stop offset="20%" stop-color="#ffffff" stop-opacity="1"></stop><stop offset="80%" stop-color="#ffffff" stop-opacity="1"></stop></linearGradient></defs><g transform="translate(900, 0)"><path d="M0 362C-60.3 350.2 -120.6 338.4 -180 311.8C-239.4 285.2 -297.8 243.7 -327.9 189.3C-357.9 134.9 -359.4 67.4 -361 0L0 0Z" fill="#6a9deb"></path></g><g transform="translate(0, 600)"><path d="M0 -370C65.8 -363.6 131.7 -357.1 189.3 -327.9C246.9 -298.6 296.2 -246.5 325.6 -188C355 -129.5 364.5 -64.8 374 0L0 0Z" fill="#6a9deb"></path></g></svg>